<?xml version="1.0" encoding="UTF-8"?>
<!DOCTYPE svg PUBLIC "-//W3C//DTD SVG 1.1//EN" "http://www.w3.org/Graphics/SVG/1.1/DTD/svg11.dtd">
<svg version="1.1" xmlns="http://www.w3.org/2000/svg" xmlns:xlink="http://www.w3.org/1999/xlink" x="0" y="0" width="220.875" height="29.562" viewBox="0, 0, 220.875, 29.562">
  <g id="Layer_1">
    <path d="M11.086,15.826 C13.238,15.826 14.236,17.459 14.446,19.778 C14.495,20.334 14.444,21.142 14.372,22.079 C14.13,25.193 13.852,29.018 15.925,29.018 C17.678,29.018 18.579,25.655 19.099,21.82 C19.601,18.025 19.069,16.135 19.33,14.451 C19.828,11.258 22.616,8.395 21.754,4.323 C21.277,2.064 20.034,1.002 18.801,0.555 C15.963,-0.478 14.131,1.512 11.083,1.512 C8.035,1.512 6.203,-0.478 3.364,0.555 C2.135,1.002 0.891,2.064 0.414,4.323 C-0.446,8.394 2.34,11.258 2.84,14.451 C3.101,16.136 2.57,18.025 3.072,21.82 C3.592,25.654 4.492,29.018 6.246,29.018 C8.317,29.018 8.041,25.193 7.799,22.079 C7.728,21.142 7.675,20.333 7.725,19.778 C7.934,17.458 8.945,15.826 11.086,15.826 L11.086,15.826 z" fill="#3CADB2"/>
    <text transform="matrix(1, 0, 0, 1, 124.571, 25.658)">
      <tspan x="-51.201" y="0" font-family="ChaparralPro-Regular" font-size="13" fill="#000000">Dentista Fontaniva</tspan>
    </text>
    <text transform="matrix(1, 0, 0, 1, 124.571, 20.52)">
      <tspan x="-79.84" y="-7" font-family="ChaparralPro-Bold" font-size="16" fill="#42ADB1">Dott. Stefania Rinaldi</tspan>
    </text>
  </g>
</svg>
